<svg t="1676262775258" class="icon" viewBox="0 0 1024 1024" version="1.1"
    xmlns="http://www.w3.org/2000/svg" p-id="5685" width="24" height="24">
    <path
        d="M874.9 459.4c-18.8 0-34 15.2-34 34v355.7c0 18.6-15.5 33.7-34.5 33.7H181.5c-19 0-34.5-15.1-34.5-33.7V232.3c0-18.6 15.5-33.7 34.5-33.7H541c18.8 0 34-15.2 34-34s-15.2-34-34-34H181.5C125 130.6 79 176.2 79 232.3v616.8c0 56 46 101.7 102.5 101.7h624.9c56.5 0 102.5-45.6 102.5-101.7V493.4c0-18.8-15.2-34-34-34z"
        fill="" p-id="5686"></path>
    <path
        d="M885.5 82.7H657.1c-18.8 0-34 15.2-34 34s15.2 34 34 34h169.7L358.5 619.1c-13.3 13.3-13.3 34.8 0 48.1 6.6 6.6 15.3 10 24 10s17.4-3.3 24-10l470-470v169.7c0 18.8 15.2 34 34 34s34-15.2 34-34V141.5c0.1-32.4-26.4-58.8-59-58.8z"
        fill="" p-id="5687"></path>
</svg>